<svg width="38" height="23" viewBox="0 0 38 23" fill="none" xmlns="http://www.w3.org/2000/svg">
<path d="M6.27 22.8C4.33 22.8 2.8 22.21 1.68 21.03C0.56 19.85 0 18.29 0 16.35C0 14.85 0.3 13.53 0.9 12.39C1.52 11.23 2.35 10.33 3.39 9.69C4.43 9.03 5.6 8.7 6.9 8.7C7.7 8.7 8.48 8.84 9.24 9.12C10 9.38 10.58 9.73 10.98 10.17C11.3 10.55 11.46 10.85 11.46 11.07C11.46 11.35 11.33 11.59 11.07 11.79L9.93 12.75H9.72L8.7 11.37C8.4 10.97 8.02 10.65 7.56 10.41C7.12 10.15 6.57 10.02 5.91 10.02C4.81 10.02 3.94 10.46 3.3 11.34C2.68 12.2 2.37 13.41 2.37 14.97C2.37 15.93 2.53 16.84 2.85 17.7C3.17 18.54 3.7 19.23 4.44 19.77C5.2 20.29 6.24 20.55 7.56 20.55C8.66 20.55 9.95 20.15 11.43 19.35H11.52V19.65C11.06 20.51 10.37 21.25 9.45 21.87C8.55 22.49 7.49 22.8 6.27 22.8Z" fill="black"/>
<path d="M11.1755 22.5V22.02L13.0655 21.06V3.42L11.2655 1.86V1.65L15.2855 0H15.4655V21.06L17.3555 22.02V22.5H11.1755Z" fill="black"/>
<path d="M16.9938 22.5V22.02L18.8838 21.06V3.42L17.0838 1.86V1.65L21.1038 0H21.2838V21.06L23.1738 22.02V22.5H16.9938Z" fill="black"/>
<path d="M28.3022 22.5L22.8122 10.41L20.8022 9.48V9H27.9722V9.48L25.5122 10.38V10.56L29.3522 18.93H29.4722L32.8622 10.74V10.56L30.7022 9.48V9H36.5822V9.48L34.3622 10.53L28.9322 22.5H28.3022Z" fill="black"/>
<path d="M35.748 22.65C35.248 22.65 34.818 22.47 34.458 22.11C34.098 21.75 33.918 21.32 33.918 20.82C33.918 20.32 34.098 19.89 34.458 19.53C34.818 19.17 35.248 18.99 35.748 18.99C36.248 18.99 36.678 19.17 37.038 19.53C37.398 19.89 37.578 20.32 37.578 20.82C37.578 21.32 37.398 21.75 37.038 22.11C36.678 22.47 36.248 22.65 35.748 22.65Z" fill="black"/>
</svg>
