<svg width="225" height="56" viewBox="0 0 225 56" fill="none" xmlns="http://www.w3.org/2000/svg">
<path d="M204.35 55.2632L190.866 25.5684L185.929 23.2842V22.1053H203.54V23.2842L197.498 25.4947V25.9368L206.929 46.4947H207.224L215.55 26.379V25.9368L210.245 23.2842V22.1053H224.687V23.2842L219.235 25.8632L205.898 55.2632H204.35Z" fill="white"/>
<path d="M181.768 12.4526C180.491 12.4526 179.435 12.0351 178.6 11.2C177.764 10.3158 177.347 9.25965 177.347 8.03158C177.347 6.75439 177.764 5.69825 178.6 4.86316C179.435 4.02807 180.491 3.61053 181.768 3.61053C183.045 3.61053 184.101 4.02807 184.936 4.86316C185.771 5.69825 186.189 6.75439 186.189 8.03158C186.189 9.25965 185.771 10.3158 184.936 11.2C184.101 12.0351 183.045 12.4526 181.768 12.4526ZM174.4 55.2632V54.0842L179.042 51.7263V29.7684L174.621 25.9368V25.4211L184.494 21.3684H184.936V51.7263L189.579 54.0842V55.2632H174.4Z" fill="white"/>
<path d="M165.593 56C163.432 56 161.565 55.3614 159.993 54.0842C158.421 52.807 157.635 51.014 157.635 48.7053V25.5684H151.593V25.1263L157.856 22.1053L163.088 14H163.53V22.1053H173.256V25.5684H163.53V47.4526C163.53 48.7298 164.095 49.6632 165.225 50.2526C166.355 50.8421 167.681 51.1368 169.204 51.1368C170.137 51.1368 170.997 51.0877 171.783 50.9895C172.618 50.8912 173.33 50.7684 173.919 50.6211H174.141V51.3579C173.649 52.4877 172.667 53.5439 171.193 54.5263C169.769 55.5088 167.902 56 165.593 56Z" fill="white"/>
<path d="M139.987 56C135.222 56 131.464 54.5509 128.713 51.6526C125.962 48.7544 124.587 44.9228 124.587 40.1579C124.587 36.4737 125.324 33.2316 126.797 30.4316C128.32 27.5825 130.359 25.3719 132.913 23.8C135.467 22.179 138.341 21.3684 141.534 21.3684C143.499 21.3684 145.415 21.7123 147.281 22.4C149.148 23.0386 150.573 23.8982 151.555 24.979C152.341 25.9123 152.734 26.6491 152.734 27.1895C152.734 27.8772 152.415 28.4667 151.776 28.9579L148.976 31.3158H148.46L145.955 27.9263C145.218 26.9439 144.285 26.1579 143.155 25.5684C142.074 24.9298 140.724 24.6105 139.103 24.6105C136.401 24.6105 134.264 25.6912 132.692 27.8526C131.169 29.9649 130.408 32.9368 130.408 36.7684C130.408 39.1263 130.801 41.3614 131.587 43.4737C132.373 45.5368 133.674 47.2316 135.492 48.5579C137.359 49.8351 139.913 50.4737 143.155 50.4737C145.857 50.4737 149.025 49.4912 152.66 47.5263H152.881V48.2632C151.752 50.3754 150.057 52.193 147.797 53.7158C145.587 55.2386 142.983 56 139.987 56Z" fill="white"/>
<path d="M110.191 56C105.426 56 101.668 54.5509 98.917 51.6526C96.1661 48.7544 94.7907 44.9228 94.7907 40.1579C94.7907 36.4737 95.503 33.2316 96.9275 30.4316C98.4012 27.5825 100.317 25.3719 102.675 23.8C105.082 22.179 107.685 21.3684 110.485 21.3684C114.366 21.3684 117.412 22.7193 119.622 25.4211C121.882 28.1228 123.012 32.0035 123.012 37.0632L122.643 37.4316H100.612C100.661 39.6912 101.103 41.8281 101.938 43.8421C102.773 45.807 104.099 47.4035 105.917 48.6316C107.784 49.8596 110.264 50.4737 113.359 50.4737C116.061 50.4737 119.229 49.4912 122.864 47.5263H123.085V48.2632C121.956 50.3754 120.261 52.193 118.001 53.7158C115.791 55.2386 113.187 56 110.191 56ZM109.306 24.6105C106.949 24.6105 105.008 25.4456 103.485 27.1158C102.012 28.7368 101.103 31.0456 100.759 34.0421H117.412C116.871 30.7018 115.914 28.2947 114.538 26.8211C113.212 25.3474 111.468 24.6105 109.306 24.6105Z" fill="white"/>
<path d="M78.5842 55.2632V54.0842L83.2263 51.7263V8.4L78.8053 4.56842V4.05263L88.6789 0H89.121V51.7263L93.7632 54.0842V55.2632H78.5842Z" fill="white"/>
<path d="M62.8198 55.2632V54.0842L67.4619 51.7263V8.4L63.0409 4.56842V4.05263L72.9146 0H73.3567V51.7263L77.9988 54.0842V55.2632H62.8198Z" fill="white"/>
<path d="M45.5748 56C42.3327 56 39.4836 55.2386 37.0275 53.7158C34.6204 52.193 32.7292 50.1298 31.3538 47.5263C30.0275 44.9228 29.3643 41.9754 29.3643 38.6842C29.3643 35.393 30.0275 32.4456 31.3538 29.8421C32.7292 27.2386 34.6204 25.1754 37.0275 23.6526C39.4836 22.1298 42.3327 21.3684 45.5748 21.3684C48.8169 21.3684 51.6415 22.1298 54.0485 23.6526C56.5047 25.1754 58.3959 27.2386 59.7222 29.8421C61.0976 32.4456 61.7854 35.393 61.7854 38.6842C61.7854 41.9754 61.0976 44.9228 59.7222 47.5263C58.3959 50.1298 56.5047 52.193 54.0485 53.7158C51.6415 55.2386 48.8169 56 45.5748 56ZM46.6064 52.8316C48.5713 52.8316 50.1924 52.2175 51.4696 50.9895C52.7468 49.7614 53.6801 48.1895 54.2696 46.2737C54.859 44.3088 55.1538 42.2702 55.1538 40.1579C55.1538 37.5544 54.7854 35.0491 54.0485 32.6421C53.3608 30.2351 52.231 28.2702 50.659 26.7474C49.1362 25.2246 47.1468 24.4632 44.6906 24.4632C42.6766 24.4632 41.031 25.0772 39.7538 26.3053C38.4766 27.5333 37.5187 29.1053 36.8801 31.0211C36.2906 32.9368 35.9959 34.9754 35.9959 37.1368C35.9959 39.7404 36.3643 42.2456 37.1011 44.6526C37.838 47.0596 38.9924 49.0246 40.5643 50.5474C42.1362 52.0702 44.1503 52.8316 46.6064 52.8316Z" fill="white"/>
<path d="M15.4 56C10.6351 56 6.87719 54.5509 4.12632 51.6526C1.37544 48.7544 0 44.9228 0 40.1579C0 36.4737 0.736842 33.2316 2.21053 30.4316C3.73333 27.5825 5.77193 25.3719 8.32632 23.8C10.8807 22.179 13.7544 21.3684 16.9474 21.3684C18.9123 21.3684 20.8281 21.7123 22.6947 22.4C24.5614 23.0386 25.986 23.8982 26.9684 24.979C27.7544 25.9123 28.1474 26.6491 28.1474 27.1895C28.1474 27.8772 27.8281 28.4667 27.1895 28.9579L24.3895 31.3158H23.8737L21.3684 27.9263C20.6316 26.9439 19.6982 26.1579 18.5684 25.5684C17.4877 24.9298 16.1368 24.6105 14.5158 24.6105C11.814 24.6105 9.67719 25.6912 8.10526 27.8526C6.58246 29.9649 5.82105 32.9368 5.82105 36.7684C5.82105 39.1263 6.21403 41.3614 7 43.4737C7.78596 45.5368 9.08772 47.2316 10.9053 48.5579C12.7719 49.8351 15.3263 50.4737 18.5684 50.4737C21.2702 50.4737 24.4386 49.4912 28.0737 47.5263H28.2947V48.2632C27.1649 50.3754 25.4702 52.193 23.2105 53.7158C21 55.2386 18.3965 56 15.4 56Z" fill="white"/>
</svg>
