<svg width="61" height="16" viewBox="0 0 61 16" fill="none" xmlns="http://www.w3.org/2000/svg">
<path d="M55.4666 15L51.8066 6.94L50.4666 6.32V6H55.2466V6.32L53.6066 6.92V7.04L56.1666 12.62H56.2466L58.5066 7.16V7.04L57.0666 6.32V6H60.9866V6.32L59.5066 7.02L55.8866 15H55.4666Z" fill="black"/>
<path d="M49.337 3.38C48.9904 3.38 48.7037 3.26667 48.477 3.04C48.2504 2.8 48.137 2.51333 48.137 2.18C48.137 1.83333 48.2504 1.54667 48.477 1.32C48.7037 1.09333 48.9904 0.98 49.337 0.98C49.6837 0.98 49.9704 1.09333 50.197 1.32C50.4237 1.54667 50.537 1.83333 50.537 2.18C50.537 2.51333 50.4237 2.8 50.197 3.04C49.9704 3.26667 49.6837 3.38 49.337 3.38ZM47.337 15V14.68L48.597 14.04V8.08L47.397 7.04V6.9L50.077 5.8H50.197V14.04L51.457 14.68V15H47.337Z" fill="black"/>
<path d="M44.9467 15.2C44.3601 15.2 43.8534 15.0267 43.4267 14.68C43.0001 14.3333 42.7867 13.8467 42.7867 13.22V6.94H41.1467V6.82L42.8467 6L44.2667 3.8H44.3867V6H47.0267V6.94H44.3867V12.88C44.3867 13.2267 44.5401 13.48 44.8467 13.64C45.1534 13.8 45.5134 13.88 45.9267 13.88C46.1801 13.88 46.4134 13.8667 46.6267 13.84C46.8534 13.8133 47.0467 13.78 47.2067 13.74H47.2667V13.94C47.1334 14.2467 46.8667 14.5333 46.4667 14.8C46.0801 15.0667 45.5734 15.2 44.9467 15.2Z" fill="black"/>
<path d="M37.9964 15.2C36.7031 15.2 35.6831 14.8067 34.9364 14.02C34.1897 13.2333 33.8164 12.1933 33.8164 10.9C33.8164 9.9 34.0164 9.02 34.4164 8.26C34.8297 7.48667 35.3831 6.88667 36.0764 6.46C36.7697 6.02 37.5497 5.8 38.4164 5.8C38.9497 5.8 39.4697 5.89333 39.9764 6.08C40.4831 6.25333 40.8697 6.48667 41.1364 6.78C41.3497 7.03333 41.4564 7.23333 41.4564 7.38C41.4564 7.56667 41.3697 7.72667 41.1964 7.86L40.4364 8.5H40.2964L39.6164 7.58C39.4164 7.31333 39.1631 7.1 38.8564 6.94C38.5631 6.76667 38.1964 6.68 37.7564 6.68C37.0231 6.68 36.4431 6.97333 36.0164 7.56C35.6031 8.13333 35.3964 8.94 35.3964 9.98C35.3964 10.62 35.5031 11.2267 35.7164 11.8C35.9297 12.36 36.2831 12.82 36.7764 13.18C37.2831 13.5267 37.9764 13.7 38.8564 13.7C39.5897 13.7 40.4497 13.4333 41.4364 12.9H41.4964V13.1C41.1897 13.6733 40.7297 14.1667 40.1164 14.58C39.5164 14.9933 38.8097 15.2 37.9964 15.2Z" fill="black"/>
<path d="M29.9089 15.2C28.6156 15.2 27.5956 14.8067 26.8489 14.02C26.1022 13.2333 25.7289 12.1933 25.7289 10.9C25.7289 9.9 25.9222 9.02 26.3089 8.26C26.7089 7.48667 27.2289 6.88667 27.8689 6.46C28.5222 6.02 29.2289 5.8 29.9889 5.8C31.0422 5.8 31.8689 6.16667 32.4689 6.9C33.0822 7.63333 33.3889 8.68667 33.3889 10.06L33.2889 10.16H27.3089C27.3222 10.7733 27.4422 11.3533 27.6689 11.9C27.8956 12.4333 28.2556 12.8667 28.7489 13.2C29.2556 13.5333 29.9289 13.7 30.7689 13.7C31.5022 13.7 32.3622 13.4333 33.3489 12.9H33.4089V13.1C33.1022 13.6733 32.6422 14.1667 32.0289 14.58C31.4289 14.9933 30.7222 15.2 29.9089 15.2ZM29.6689 6.68C29.0289 6.68 28.5022 6.90667 28.0889 7.36C27.6889 7.8 27.4422 8.42667 27.3489 9.24H31.8689C31.7222 8.33334 31.4622 7.68 31.0889 7.28C30.7289 6.88 30.2556 6.68 29.6689 6.68Z" fill="black"/>
<path d="M21.33 15V14.68L22.59 14.04V2.28L21.39 1.24V1.1L24.07 0H24.19V14.04L25.45 14.68V15H21.33Z" fill="black"/>
<path d="M17.0511 15V14.68L18.3111 14.04V2.28L17.1111 1.24V1.1L19.7911 0H19.9111V14.04L21.1711 14.68V15H17.0511Z" fill="black"/>
<path d="M12.3703 15.2C11.4903 15.2 10.717 14.9933 10.0503 14.58C9.39698 14.1667 8.88365 13.6067 8.51031 12.9C8.15031 12.1933 7.97031 11.3933 7.97031 10.5C7.97031 9.60667 8.15031 8.80667 8.51031 8.1C8.88365 7.39333 9.39698 6.83333 10.0503 6.42C10.717 6.00667 11.4903 5.8 12.3703 5.8C13.2503 5.8 14.017 6.00667 14.6703 6.42C15.337 6.83333 15.8503 7.39333 16.2103 8.1C16.5836 8.80667 16.7703 9.60667 16.7703 10.5C16.7703 11.3933 16.5836 12.1933 16.2103 12.9C15.8503 13.6067 15.337 14.1667 14.6703 14.58C14.017 14.9933 13.2503 15.2 12.3703 15.2ZM12.6503 14.34C13.1836 14.34 13.6236 14.1733 13.9703 13.84C14.317 13.5067 14.5703 13.08 14.7303 12.56C14.8903 12.0267 14.9703 11.4733 14.9703 10.9C14.9703 10.1933 14.8703 9.51333 14.6703 8.86C14.4836 8.20667 14.177 7.67333 13.7503 7.26C13.337 6.84667 12.797 6.64 12.1303 6.64C11.5836 6.64 11.137 6.80667 10.7903 7.14C10.4436 7.47333 10.1836 7.9 10.0103 8.42C9.85031 8.94 9.77031 9.49333 9.77031 10.08C9.77031 10.7867 9.87031 11.4667 10.0703 12.12C10.2703 12.7733 10.5836 13.3067 11.0103 13.72C11.437 14.1333 11.9836 14.34 12.6503 14.34Z" fill="black"/>
<path d="M4.18 15.2C2.88667 15.2 1.86667 14.8067 1.12 14.02C0.373333 13.2333 0 12.1933 0 10.9C0 9.9 0.2 9.02 0.6 8.26C1.01333 7.48667 1.56667 6.88667 2.26 6.46C2.95333 6.02 3.73333 5.8 4.6 5.8C5.13333 5.8 5.65333 5.89333 6.16 6.08C6.66667 6.25333 7.05333 6.48667 7.32 6.78C7.53333 7.03333 7.64 7.23333 7.64 7.38C7.64 7.56667 7.55333 7.72667 7.38 7.86L6.62 8.5H6.48L5.8 7.58C5.6 7.31333 5.34667 7.1 5.04 6.94C4.74667 6.76667 4.38 6.68 3.94 6.68C3.20667 6.68 2.62667 6.97333 2.2 7.56C1.78667 8.13333 1.58 8.94 1.58 9.98C1.58 10.62 1.68667 11.2267 1.9 11.8C2.11333 12.36 2.46667 12.82 2.96 13.18C3.46667 13.5267 4.16 13.7 5.04 13.7C5.77333 13.7 6.63333 13.4333 7.62 12.9H7.68V13.1C7.37333 13.6733 6.91333 14.1667 6.3 14.58C5.7 14.9933 4.99333 15.2 4.18 15.2Z" fill="black"/>
</svg>
